<?xml version="1.0" encoding="UTF-8" standalone="no"?>
<!-- Created with Inkscape (http://www.inkscape.org/) -->

<svg
   width="2000"
   height="2000"
   viewBox="0 0 529.16667 529.16666"
   version="1.1"
   id="svg1"
   inkscape:version="1.3.2 (091e20e, 2023-11-25, custom)"
   sodipodi:docname="PORIADNYI-Daniil_projet.svg"
   xml:space="preserve"
   xmlns:inkscape="http://www.inkscape.org/namespaces/inkscape"
   xmlns:sodipodi="http://sodipodi.sourceforge.net/DTD/sodipodi-0.dtd"
   xmlns="http://www.w3.org/2000/svg"
   xmlns:svg="http://www.w3.org/2000/svg"><sodipodi:namedview
     id="namedview1"
     pagecolor="#505050"
     bordercolor="#eeeeee"
     borderopacity="1"
     inkscape:showpageshadow="0"
     inkscape:pageopacity="0"
     inkscape:pagecheckerboard="0"
     inkscape:deskcolor="#505050"
     inkscape:document-units="mm"
     inkscape:zoom="0.25"
     inkscape:cx="538"
     inkscape:cy="1072"
     inkscape:window-width="1920"
     inkscape:window-height="1051"
     inkscape:window-x="-9"
     inkscape:window-y="-9"
     inkscape:window-maximized="1"
     inkscape:current-layer="layer1"
     showgrid="false"
     showguides="true"><inkscape:grid
       id="grid9"
       units="mm"
       originx="0"
       originy="0"
       spacingx="0.99999998"
       spacingy="1"
       empcolor="#0099e5"
       empopacity="0.30196078"
       color="#0099e5"
       opacity="0.14901961"
       empspacing="5"
       dotted="false"
       gridanglex="30"
       gridanglez="30"
       visible="false" /></sodipodi:namedview><defs
     id="defs1" /><g
     inkscape:label="Calque 1"
     inkscape:groupmode="layer"
     id="layer1"><path
       id="text7-4"
       style="font-size:127.252px;line-height:55.6151px;font-family:'Baskerville Old Face';-inkscape-font-specification:'Baskerville Old Face, Normal';letter-spacing:0px;word-spacing:0px;stroke-width:0;paint-order:fill markers stroke"
       d="m 259.92138,18.577352 c -3.56242,0 -6.56205,1.219676 -8.99952,3.657124 -2.43745,2.343694 -3.65597,5.249004 -3.65597,8.717671 0,3.562423 1.17191,6.515489 3.51564,8.859192 2.43742,2.343702 5.48366,3.515612 9.13985,3.515612 3.65617,0 6.65701,-1.17191 9.00071,-3.515612 2.43746,-2.343703 3.65594,-5.296769 3.65594,-8.859192 0,-3.468667 -1.21848,-6.373977 -3.65594,-8.717671 -2.43745,-2.437448 -5.43829,-3.657124 -9.00071,-3.657124 z m 11.15029,68.820993 -42.89016,5.48509 v 3.3741 c 7.7811,0 13.3599,2.25062 16.73478,6.750525 3.37493,4.49989 5.06175,11.85868 5.06175,22.07721 v 52.17156 c -6.74987,-5.43738 -12.65598,-9.18842 -17.71839,-11.25088 -5.06238,-2.06245 -11.15607,-3.09341 -18.28091,-3.09341 -14.71843,0 -27.4207,4.50009 -38.10797,13.49989 -6.74985,5.81237 -12.00014,13.12455 -15.75005,21.93688 -3.74993,8.71854 -5.62427,18.23479 -5.62427,28.54705 0,9.74979 1.73339,18.7488 5.20207,26.99861 3.46866,8.15605 8.43822,14.95336 14.90682,20.39074 10.12478,8.53107 22.31099,12.79583 36.56068,12.79583 7.0311,0 13.59427,-0.98435 19.68787,-2.95305 6.01326,-1.91333 12.38733,-5.04519 19.10894,-9.34922 0.0166,0.61578 0.0166,1.13862 0,1.67823 -0.2528,5.4112 0.0688,7.96781 -2.63334,16.06234 -3.27198,9.80131 -16.67164,7.82181 -16.67164,7.82181 l 0.16368,0.0469 c -2.133,-0.18485 -4.24706,-0.31111 -6.3213,-0.31111 -5.23988,0 -10.6232,0.56265 -16.14888,1.68762 -5.43042,1.03123 -10.00305,2.39068 -13.71859,4.07814 -6.85947,3.2812 -10.28952,7.31182 -10.28952,12.09296 0,3.18744 1.09633,5.85975 3.28754,8.01596 2.19123,2.06245 4.90542,3.09339 8.14461,3.09339 4.95407,0 8.38412,-2.20286 10.28953,-6.60898 l 3.57291,-8.15633 c 1.52432,-3.46869 3.81064,-6.18758 6.85929,-8.15629 3.04866,-1.96873 6.52612,-2.95306 10.43221,-2.95306 3.23919,0 6.33503,0.70359 9.2884,2.10981 3.04865,1.40624 5.52582,3.28174 7.43118,5.62544 4.19192,5.0624 6.2886,13.07705 6.2886,24.04554 0,5.15614 -0.57248,9.18792 -1.71572,12.09411 -1.14325,2.90618 -3.23871,5.43756 -6.28739,7.59377 -2.66756,1.96871 -6.00162,3.65548 -10.00299,5.06172 -3.90609,1.40624 -10.00409,3.14077 -18.29262,5.20322 -7.05001,1.78122 -12.43215,3.5624 -16.1477,5.34362 -3.71554,1.68746 -7.0022,3.98466 -9.86031,6.89084 -5.04932,5.24988 -7.57387,11.76528 -7.57387,19.54638 0,8.43732 3.04842,15.14023 9.14572,20.10886 6.19258,4.96867 14.52833,7.45225 25.00806,7.45225 8.19325,0 15.38643,-1.68679 21.579,-5.06169 3.23922,-1.78123 8.05005,-5.48451 14.43317,-11.10941 3.14394,5.34368 6.19235,9.09353 9.14573,11.24974 1.92675,1.41187 4.07878,2.50074 6.4289,3.3051 l -22.24446,53.36565 -4.21851,10.1246 c -2.53117,5.99988 -4.49988,10.26579 -5.9061,12.79703 -1.40623,2.53118 -2.81343,4.35892 -4.21968,5.48392 -2.3437,1.78119 -5.15579,2.85992 -8.43698,3.23491 v 2.95305 h 54.42056 v -2.95305 c -3.84367,-0.5625 -6.60917,-1.3127 -8.29664,-2.25018 -3.65618,-2.06247 -5.48394,-5.24967 -5.48394,-9.5621 0,-3.74992 1.92211,-10.45283 5.7658,-20.10887 l 21.648,-55.28019 c 1.07077,-0.75127 2.06836,-1.60161 2.98696,-2.5496 l 19.52065,48.26652 c 5.06237,12.65599 7.59259,21.60954 7.59259,26.85941 0,4.21868 -1.17189,7.54683 -3.51559,9.98428 -2.34373,2.5312 -5.7651,4.07821 -10.265,4.64071 v 2.95305 h 40.21783 v -2.95305 c -4.0312,-1.125 -7.03084,-2.29689 -8.99954,-3.51562 -1.87495,-1.21872 -3.70272,-3.14084 -5.48394,-5.76578 -2.71869,-4.12493 -7.03124,-13.3592 -12.93735,-27.70264 l -22.91342,-56.96543 c 1.8319,-3.06508 3.1068,-6.6863 3.74366,-10.72929 -1.85082,5.01036 -3.26571,7.57515 -4.43252,9.01823 l -19.45396,-48.3659 c -1.26853,-3.07379 -2.31316,-5.2975 -3.22675,-7.00665 v -20.80711 -16.84589 c 4.65677,4.17035 9.88357,7.57052 15.69862,10.17721 8.05355,3.61028 16.49617,5.41611 25.32735,5.41611 8.94228,0 17.49603,-1.86083 25.66063,-5.58216 8.22025,-3.7213 15.32904,-8.97044 21.32759,-15.74655 4.88767,-5.4431 8.6094,-11.46915 11.16431,-18.07858 2.55496,-6.60954 3.83255,-13.46966 3.83255,-20.57907 0,-11.03187 -2.97984,-21.1322 -8.91065,-30.31068 l 0.0257,0.0143 c 0,0 -12.80022,-25.08826 -12.84732,-58.63087 -0.0471,-33.54261 0,-59.6238 0,-59.6238 0,-10.21853 -3.60889,-18.09338 -10.8275,-23.62451 -7.31235,-5.624875 -16.96833,-8.436985 -28.96808,-8.436985 -16.03088,0 -30.44443,6.247205 -42.06917,17.684465 l -0.0246,-10.99125 z m 32.92932,12.45198 c 4.87489,0 9.32721,0.937755 13.35835,2.812715 4.03115,1.78121 7.12519,4.31141 9.28138,7.59259 1.96873,2.90619 3.2816,6.75042 3.93781,11.53157 0.75001,4.78114 1.12393,12.28089 1.12393,22.49941 v 29.81132 c 0,16.53143 1.08812,21.63762 -4.30855,27.87341 -5.21538,6.02631 -14.19954,7.58064 -20.06095,7.48032 -5.23386,-0.0828 -15.50191,-0.52577 -20.99775,-2.77996 -4.0112,-1.64525 -6.14065,-1.88104 -10.24741,-8.0113 -4.10674,-6.13026 -4.36004,-18.23436 -4.43019,-23.43738 v -27.56114 c 0,-10.96851 0.42171,-18.79677 1.26544,-23.48417 0.93748,-4.78114 2.81183,-9.04707 5.62427,-12.79699 2.62495,-3.56242 6.18845,-6.37453 10.68833,-8.43699 4.59365,-2.06245 9.51544,-3.093405 14.76534,-3.093405 z m -85.0997,66.859685 c 4.4999,0 8.85903,1.07755 13.07769,3.23376 4.31242,2.1562 7.73377,5.01607 10.26496,8.57849 2.90619,4.12491 4.92151,9.4684 6.04647,16.03075 1.12499,6.46861 1.68763,16.21783 1.68763,29.24878 0,12.46847 -0.56264,22.0313 -1.68763,28.6874 -1.12496,6.56236 -3.09366,12.09339 -5.90613,16.59329 -2.71869,4.31243 -6.28099,7.68717 -10.68716,10.12464 -4.40615,2.43743 -9.04602,3.65591 -13.92092,3.65591 -10.21853,0 -18.84358,-4.7808 -25.87467,-14.3431 -4.03117,-5.53113 -7.21838,-12.14087 -9.56209,-19.82821 -2.34369,-7.78107 -3.5156,-15.70251 -3.5156,-23.76483 0,-8.24984 1.2185,-16.26447 3.65595,-24.04554 2.53119,-7.78108 6.00033,-14.4852 10.40647,-20.11007 7.31235,-9.3748 15.984,-14.06127 26.01503,-14.06127 z m 94.4489,51.11196 c 0.83814,0 1.65576,0.0259 2.46187,0.068 -0.81777,-0.0413 -1.63804,-0.068 -2.46187,-0.068 z m -2.13555,0.0469 c -0.40203,0.018 -0.80306,0.0539 -1.20462,0.082 0.40041,-0.0289 0.79618,-0.0638 1.20462,-0.082 z m 5.58097,0.0901 c 0.20103,0.0161 0.40585,0.0255 0.60469,0.0432 l 0.0187,0.0107 c -0.20757,-0.018 -0.41434,-0.0378 -0.62222,-0.0526 z m -4.15063,2.11801 c 5.02742,0 9.37421,0.89278 13.03909,2.67822 3.71188,1.7385 7.07077,4.53394 10.07782,8.38673 3.71191,4.69855 6.57798,10.43083 8.5984,17.19677 2.06732,6.71895 3.10158,13.86109 3.10158,21.42578 0,13.76678 -3.71253,25.34841 -11.13625,34.74556 -3.38295,4.22872 -6.95285,7.28265 -10.71174,9.16211 -3.71181,1.87942 -8.03539,2.81971 -12.9689,2.81971 -4.88656,0 -9.20892,-0.94029 -12.96777,-2.81971 -3.71186,-1.92647 -7.23539,-4.98041 -10.57137,-9.16211 -7.42376,-9.35011 -11.13625,-20.83786 -11.13625,-34.46371 0,-7.75266 1.01099,-15.01187 3.03139,-21.77784 2.0204,-6.76588 4.88651,-12.47495 8.5984,-17.12656 3.10104,-3.89981 6.45995,-6.71846 10.07783,-8.4569 3.66489,-1.7385 7.98728,-2.60805 12.96777,-2.60805 z m 37.1513,82.87175 c -2.11075,5.31017 -4.91993,10.20953 -8.45338,14.68226 -3.99898,4.9988 -8.2203,8.60816 -12.6637,10.82986 -4.38774,2.22165 -9.49711,3.33314 -15.32901,3.33314 -5.77645,0 -10.88687,-1.11149 -15.3302,-3.33314 -4.38784,-2.27727 -8.55295,-5.88665 -12.49642,-10.82986 -2.68121,-3.3769 -4.94701,-6.9928 -6.80901,-10.84154 3.59594,3.00162 7.57334,5.48802 11.94207,7.44639 6.8129,3.05411 13.9539,4.58226 21.42462,4.58226 7.56472,0 14.80077,-1.57457 21.70766,-4.7226 6.04731,-2.73765 11.38137,-6.45482 16.00737,-11.14677 z m -99.81824,53.26959 v 27.67461 c -0.52246,8.17702 -1.91172,14.70284 -4.18691,19.54164 -2.09597,4.78114 -5.2392,8.62538 -9.43109,11.53157 -4.09665,2.81243 -8.47962,4.21849 -13.14786,4.21849 -5.33514,0 -9.76553,-2.01532 -13.29054,-6.04645 -3.42974,-4.03117 -5.14359,-9.1405 -5.14359,-15.32789 0,-7.21859 2.23773,-13.54638 6.71544,-18.98379 2.19122,-2.62495 4.62094,-4.87554 7.28851,-6.75051 2.66757,-1.87497 7.47844,-4.6405 14.43318,-8.29666 2.4202,-1.24572 4.73714,-2.5942 6.99729,-3.99747 -6e-4,0.0241 0.0106,0.032 0.0502,0.007 3.4411,-2.23981 6.3122,-3.60404 9.71529,-3.57058 z m 21.67957,12.05317 3.67466,9.00772 c 1.87497,4.49989 2.81159,7.96905 2.81159,10.40648 0,3.46867 -1.78118,9.51458 -5.34361,18.13941 -0.76213,-3.18743 -1.14264,-9.18675 -1.14264,-17.99907 v -0.5333 z"
       sodipodi:nodetypes="scscscscscccsscssccsccscccsccsccscsccssccsscccccscsccccccsccccccsccccsccccccccccccccccsccssccsccscccscccssscsscscccsscccsccssccsccsccccccscccscccsccsccssccscccscccssccccccscscsccccccscscccs" /></g></svg>
