<?xml version="1.0" encoding="UTF-8" standalone="no"?>
<!-- Created with Inkscape (http://www.inkscape.org/) -->

<svg
   width="703.27368"
   height="1571.5726"
   viewBox="0 0 186.0745 415.81192"
   version="1.1"
   id="svg1"
   inkscape:version="1.3.2 (091e20e, 2023-11-25, custom)"
   sodipodi:docname="PORIADNYI-Daniil_projet.svg"
   xml:space="preserve"
   inkscape:export-filename="PORIADNYI-Daniil_projet.jpg"
   inkscape:export-xdpi="96"
   inkscape:export-ydpi="96"
   xmlns:inkscape="http://www.inkscape.org/namespaces/inkscape"
   xmlns:sodipodi="http://sodipodi.sourceforge.net/DTD/sodipodi-0.dtd"
   xmlns="http://www.w3.org/2000/svg"
   xmlns:svg="http://www.w3.org/2000/svg"><sodipodi:namedview
     id="namedview1"
     pagecolor="#505050"
     bordercolor="#eeeeee"
     borderopacity="1"
     inkscape:showpageshadow="0"
     inkscape:pageopacity="0"
     inkscape:pagecheckerboard="0"
     inkscape:deskcolor="#505050"
     inkscape:document-units="mm"
     inkscape:zoom="0.25"
     inkscape:cx="536"
     inkscape:cy="1072"
     inkscape:window-width="1920"
     inkscape:window-height="1051"
     inkscape:window-x="-9"
     inkscape:window-y="-9"
     inkscape:window-maximized="1"
     inkscape:current-layer="layer1"
     showgrid="false"
     showguides="true"><inkscape:grid
       id="grid9"
       units="mm"
       originx="-171.5461"
       originy="-56.677349"
       spacingx="0.99999998"
       spacingy="1"
       empcolor="#0099e5"
       empopacity="0.30196078"
       color="#0099e5"
       opacity="0.14901961"
       empspacing="5"
       dotted="false"
       gridanglex="30"
       gridanglez="30"
       visible="false" /></sodipodi:namedview><defs
     id="defs1" /><g
     inkscape:label="Calque 1"
     inkscape:groupmode="layer"
     id="layer1"
     transform="translate(-171.5461,-56.67735)"><path
       id="text7-4"
       style="font-size:127.252px;line-height:55.6151px;font-family:'Baskerville Old Face';-inkscape-font-specification:'Baskerville Old Face, Normal';letter-spacing:0px;word-spacing:0px;stroke-width:0;paint-order:fill markers stroke"
       d="m 260.6434,56.677352 c -3.0107,0 -5.54576,1.03078 -7.60573,3.09073 -2.05995,1.980716 -3.08975,4.436068 -3.08975,7.367527 0,3.010696 0.99041,5.506408 2.97115,7.487131 2.05993,1.980723 4.63439,2.971135 7.72433,2.971135 3.08992,0 5.62601,-0.990412 7.60673,-2.971135 2.05996,-1.980723 3.08973,-4.476435 3.08973,-7.487131 0,-2.931459 -1.02977,-5.386811 -3.08973,-7.367527 -2.05995,-2.05995 -4.59604,-3.09073 -7.60673,-3.09073 z m 9.42339,58.162388 -36.24757,4.63559 v 2.85154 c 6.576,0 11.29079,1.90206 14.14299,5.70504 2.85224,3.80298 4.27781,10.02208 4.27781,18.65802 v 44.09153 c -5.70448,-4.59527 -10.69589,-7.76537 -14.97426,-9.50841 -4.27835,-1.74303 -9.42828,-2.61432 -15.44967,-2.61432 -12.43892,0 -23.17394,3.80314 -32.20603,11.40911 -5.70447,4.91218 -10.14162,11.09189 -13.31077,18.53942 -3.16916,7.36826 -4.75321,15.41069 -4.75321,24.12584 0,8.2398 1.46493,15.8451 4.3964,22.81722 2.93145,6.89289 7.13136,12.63747 12.59814,17.23274 8.55671,7.20983 18.85559,10.81409 30.89837,10.81409 5.94216,0 11.48886,-0.8319 16.63872,-2.4957 5.08196,-1.61701 10.46885,-4.26382 16.14946,-7.90127 0.014,0.52041 0.014,0.96228 0,1.41832 -0.21365,4.57314 0.0581,6.7338 -2.2255,13.57469 -2.76524,8.28334 -14.08964,6.61042 -14.08964,6.61042 l 0.13833,0.0396 c -1.80265,-0.15622 -3.58929,-0.26292 -5.34229,-0.26292 -4.42836,0 -8.97794,0.47551 -13.64783,1.42625 -4.58939,0.87152 -8.45384,2.02042 -11.59394,3.44654 -5.79711,2.77302 -8.69593,6.1794 -8.69593,10.22007 0,2.69379 0.92653,4.95222 2.77838,6.77449 1.85187,1.74303 4.1457,2.61431 6.88322,2.61431 4.18681,0 7.08564,-1.8617 8.69595,-5.58542 l 3.01956,-6.89313 c 1.28824,-2.93148 3.22046,-5.22928 5.79696,-6.89309 2.5765,-1.66382 5.51539,-2.4957 8.81653,-2.4957 2.73752,0 5.35389,0.59462 7.84986,1.78305 2.57649,1.18845 4.67001,2.77348 6.28028,4.7542 3.5427,4.27837 5.31466,11.05176 5.31466,20.32151 0,4.35758 -0.48382,7.76495 -1.45,10.22104 -0.96619,2.45609 -2.73712,4.59542 -5.31363,6.41769 -2.25443,1.66381 -5.07213,3.08934 -8.45379,4.27779 -3.30113,1.18845 -8.45471,2.65435 -15.45956,4.39738 -5.95815,1.50535 -10.50673,3.01067 -13.64684,4.51603 -3.1401,1.42611 -5.91774,3.36754 -8.3332,5.82362 -4.26731,4.43681 -6.40087,9.94314 -6.40087,16.51915 0,7.1306 2.5763,12.7954 7.72928,16.99452 5.23351,4.19915 12.27827,6.29808 21.13496,6.29808 6.92432,0 13.00346,-1.42554 18.23696,-4.27776 2.73755,-1.50536 6.80331,-4.6351 12.19785,-9.38885 2.65702,4.51608 5.23331,7.68518 7.72929,9.50745 1.62835,1.1932 3.44708,2.11344 5.43323,2.79322 l -18.79937,45.10069 -3.56517,8.55655 c -2.13916,5.07066 -3.80296,8.67589 -4.9914,10.8151 -1.18844,2.13917 -2.3777,3.68384 -3.56616,4.63461 -1.98072,1.50533 -4.35729,2.41699 -7.1303,2.7339 v 2.4957 h 45.99221 v -2.4957 c -3.24838,-0.47538 -5.58558,-1.1094 -7.0117,-1.90168 -3.08994,-1.74305 -4.63462,-4.43663 -4.63462,-8.08118 0,-3.16915 1.62442,-8.83396 4.87282,-16.99452 l 18.29529,-46.71871 c 0.90493,-0.63492 1.74802,-1.35357 2.52435,-2.15474 l 16.49741,40.79128 c 4.27833,10.6959 6.41669,18.26278 6.41669,22.69958 0,3.56531 -0.9904,6.37802 -2.97112,8.43797 -1.98074,2.13918 -4.87223,3.4466 -8.67521,3.92198 v 2.4957 h 33.98912 v -2.4957 c -3.40687,-0.95076 -5.94194,-1.94116 -7.60574,-2.97114 -1.58457,-1.02997 -3.12927,-2.6544 -4.63462,-4.87281 -2.29764,-3.48608 -5.94228,-11.2902 -10.93369,-23.41221 l -19.36472,-48.14295 c 1.54819,-2.59038 2.62564,-5.65076 3.16386,-9.0676 -1.56417,4.23439 -2.75993,6.40196 -3.74603,7.62154 l -16.44104,-40.87527 c -1.07207,-2.59773 -1.95492,-4.47705 -2.72701,-5.9215 V 324.767 310.53011 c 3.93555,3.52447 8.35286,6.39804 13.2673,8.60102 6.80627,3.05114 13.94134,4.57729 21.4048,4.57729 7.55735,0 14.78634,-1.57263 21.68646,-4.71762 6.94714,-3.14497 12.95496,-7.58115 18.02449,-13.30782 4.1307,-4.6001 7.27603,-9.69287 9.43525,-15.27867 2.15926,-5.58589 3.23898,-11.38356 3.23898,-17.3919 0,-9.32332 -2.51834,-17.85937 -7.53062,-25.61634 l 0.0217,0.0121 c 0,0 -10.81779,-21.20274 -10.8576,-49.55046 -0.0398,-28.34772 0,-50.38961 0,-50.38961 0,-8.63594 -3.04996,-15.29118 -9.1506,-19.96568 -6.17985,-4.75372 -14.34037,-7.13031 -24.48167,-7.13031 -13.5481,0 -25.72937,5.27967 -35.55373,14.9456 l -0.0208,-9.28899 z m 27.82942,10.52349 c 4.11989,0 7.88266,0.79252 11.28948,2.3771 3.40683,1.50535 6.02168,3.64368 7.84394,6.41669 1.66382,2.4561 2.77336,5.70496 3.32794,9.74563 0.63385,4.04066 0.94986,10.37889 0.94986,19.01483 v 25.19431 c 0,13.97114 0.9196,18.28651 -3.64126,23.55654 -4.40766,5.09299 -12.0004,6.40659 -16.95403,6.32181 -4.42327,-0.07 -13.10106,-0.44434 -17.74574,-2.34942 -3.38997,-1.39044 -5.18962,-1.58971 -8.66035,-6.77055 -3.47071,-5.18084 -3.68478,-15.41033 -3.74406,-19.80754 v -23.29262 c 0,-9.26977 0.35639,-15.88564 1.06945,-19.84708 0.79229,-4.04066 2.37635,-7.64591 4.75322,-10.81507 2.21841,-3.01069 5.23002,-5.38727 9.03298,-7.13031 3.88221,-1.74303 8.04174,-2.61432 12.47857,-2.61432 z m -71.91995,56.50484 c 3.80298,0 7.487,0.91067 11.0523,2.73293 3.64453,1.82226 6.536,4.23921 8.67518,7.24991 2.45609,3.48606 4.15929,8.00199 5.11002,13.548 0.95076,5.46678 1.42626,13.7061 1.42626,24.71889 0,10.53743 -0.4755,18.61922 -1.42626,24.24446 -0.95073,5.54602 -2.61453,10.22044 -4.99142,14.02342 -2.29763,3.64454 -5.30822,6.49662 -9.03199,8.55659 -3.72375,2.05994 -7.64503,3.0897 -11.76493,3.0897 -8.63594,0 -15.92519,-4.04037 -21.86735,-12.12172 -3.40684,-4.6745 -6.10044,-10.26056 -8.08117,-16.75733 -1.98071,-6.57598 -2.97112,-13.27059 -2.97112,-20.08427 0,-6.97215 1.02979,-13.74552 3.08974,-20.3215 2.13917,-6.57599 5.07103,-12.24182 8.79477,-16.99554 6.17986,-7.92288 13.50849,-11.88354 21.98597,-11.88354 z m 79.8212,43.19603 c 0.70833,0 1.39932,0.0219 2.08059,0.0575 -0.69112,-0.0349 -1.38435,-0.0575 -2.08059,-0.0575 z m -1.80481,0.0396 c -0.33977,0.0152 -0.67869,0.0456 -1.01806,0.0693 0.3384,-0.0244 0.67288,-0.0539 1.01806,-0.0693 z m 4.71662,0.0761 c 0.1699,0.0136 0.34299,0.0216 0.51104,0.0365 l 0.0158,0.009 c -0.17542,-0.0152 -0.35017,-0.0319 -0.52585,-0.0445 z m -3.5078,1.78999 c 4.2488,0 7.92238,0.75451 11.01967,2.26343 3.137,1.46925 5.97569,3.83175 8.51702,7.08784 3.13703,3.97087 5.55922,8.81537 7.26673,14.53344 1.74715,5.67835 2.62123,11.71436 2.62123,18.10747 0,11.63466 -3.13756,21.4226 -9.41154,29.36437 -2.85901,3.5738 -5.87603,6.15475 -9.05276,7.74313 -3.13695,1.58835 -6.79092,2.38301 -10.96035,2.38301 -4.12976,0 -7.7827,-0.79466 -10.9594,-2.38301 -3.13699,-1.62811 -6.11481,-4.20907 -8.93414,-7.74313 -6.27401,-7.90202 -9.41153,-17.61061 -9.41153,-29.12617 0,-6.55197 0.85442,-12.68692 2.56191,-18.40501 1.70749,-5.71802 4.12971,-10.5429 7.26673,-14.4741 2.62077,-3.29583 5.45947,-5.67794 8.51703,-7.14714 3.09729,-1.46925 6.75026,-2.20413 10.9594,-2.20413 z m 31.39752,70.03705 c -1.78385,4.48776 -4.15796,8.62833 -7.14417,12.40835 -3.37964,4.22462 -6.94719,7.27498 -10.70242,9.15259 -3.70819,1.87758 -8.02625,2.81693 -12.95494,2.81693 -4.88183,0 -9.20078,-0.93935 -12.95595,-2.81693 -3.70828,-1.92457 -7.22832,-4.97495 -10.56104,-9.15259 -2.26596,-2.8539 -4.18085,-5.90979 -5.75447,-9.16246 3.03902,2.53674 6.40042,4.63806 10.09255,6.29313 5.75775,2.58111 11.7928,3.87259 18.10649,3.87259 6.39314,0 12.50851,-1.33071 18.34571,-3.99119 5.11073,-2.31366 9.61868,-5.45514 13.52824,-9.42042 z m -84.35897,45.0195 v 23.38852 c -0.44154,6.91061 -1.61564,12.42575 -3.53846,16.51514 -1.77136,4.04067 -4.42778,7.28953 -7.97046,9.74563 -3.46218,2.37686 -7.16634,3.56515 -11.11159,3.56515 -4.50887,0 -8.2531,-1.70319 -11.23218,-5.11001 -2.89856,-3.40684 -4.34698,-7.72487 -4.34698,-12.95399 0,-6.10062 1.89116,-11.44839 5.67539,-16.04369 1.85186,-2.21841 3.90528,-4.12044 6.15971,-5.70503 2.25443,-1.58458 6.32022,-3.9218 12.19785,-7.01172 2.04537,-1.05279 4.00348,-2.19242 5.91359,-3.37836 -5.1e-4,0.0204 0.009,0.027 0.0424,0.006 2.90817,-1.89292 5.33461,-3.04587 8.21065,-3.01759 z m 18.32197,10.18644 3.10555,7.61266 c 1.58458,3.80297 2.37614,6.73485 2.37614,8.79478 0,2.93146 -1.50532,8.04102 -4.51602,15.33008 -0.6441,-2.69378 -0.96567,-7.76396 -0.96567,-15.21147 v -0.45071 z"
       sodipodi:nodetypes="scscscscscccsscssccsccscccsccsccscsccssccsscccccscsccccccsccccccsccccsccccccccccccccccsccssccsccscccscccssscsscscccsscccsccssccsccsccccccscccscccsccsccssccscccscccssccccccscscsccccccscscccs" /></g></svg>
